HIERARCHY
ROOT Hips
{
 OFFSET 0.000000 0.000000 0.000000
 CHANNELS 6 Xposition Yposition Zposition Yrotation Xrotation Zrotation
 JOINT Chest
 {
  OFFSET 0.000000 10.388337 0.005184
  CHANNELS 3 Yrotation Xrotation Zrotation
  JOINT Chest2
  {
   OFFSET 0.000000 10.458247 -0.010579
   CHANNELS 3 Yrotation Xrotation Zrotation
   JOINT Chest3
   {
    OFFSET 0.000000 10.415828 0.000000
    CHANNELS 3 Yrotation Xrotation Zrotation
    JOINT Chest4
    {
     OFFSET 0.000000 10.405206 0.000000
     CHANNELS 3 Yrotation Xrotation Zrotation
     JOINT Neck
     {
      OFFSET 0.000000 15.720090 0.000000
      CHANNELS 3 Yrotation Xrotation Zrotation
      JOINT Head
      {
       OFFSET 0.000000 9.732643 -0.022378
       CHANNELS 3 Yrotation Xrotation Zrotation
       End Site
       {
        OFFSET 0.000000 18.603619 -0.011814
       }
      }
     }
     JOINT RightCollar
     {
      OFFSET -3.167735 10.388953 0.000000
      CHANNELS 3 Yrotation Xrotation Zrotation
      JOINT RightShoulder
      {
       OFFSET -14.584825 0.000000 0.000000
       CHANNELS 3 Yrotation Xrotation Zrotation
       JOINT RightElbow
       {
        OFFSET 0.000000 -31.921689 0.000000
        CHANNELS 3 Yrotation Xrotation Zrotation
        JOINT RightWrist
        {
         OFFSET 0.000000 -25.835217 0.000000
         CHANNELS 3 Yrotation Xrotation Zrotation
         End Site
         {
          OFFSET 0.000000 -19.128920 0.000000
         }
        }
       }
      }
     }
     JOINT LeftCollar
     {
      OFFSET 3.167735 10.388953 0.000000
      CHANNELS 3 Yrotation Xrotation Zrotation
      JOINT LeftShoulder
      {
       OFFSET 14.584825 0.000000 0.000000
       CHANNELS 3 Yrotation Xrotation Zrotation
       JOINT LeftElbow
       {
        OFFSET 0.000000 -31.921689 0.000000
        CHANNELS 3 Yrotation Xrotation Zrotation
        JOINT LeftWrist
        {
         OFFSET 0.000000 -25.835217 0.000000
         CHANNELS 3 Yrotation Xrotation Zrotation
         End Site
         {
          OFFSET 0.000000 -19.128920 0.000000
         }
        }
       }
      }
     }
    }
   }
  }
 }
 JOINT RightHip
 {
  OFFSET -8.403278 -0.025659 -0.002592
  CHANNELS 3 Yrotation Xrotation Zrotation
  JOINT RightKnee
  {
   OFFSET 0.000000 -44.040977 0.002477
   CHANNELS 3 Yrotation Xrotation Zrotation
   JOINT RightAnkle
   {
    OFFSET 0.000000 -42.951162 0.004189
    CHANNELS 3 Yrotation Xrotation Zrotation
    JOINT RightToe
    {
     OFFSET 0.000000 -5.494238 12.197485
     CHANNELS 3 Yrotation Xrotation Zrotation
     End Site
     {
      OFFSET 0.000000 -1.538716 6.371628
     }
    }
   }
  }
 }
 JOINT LeftHip
 {
  OFFSET 8.403278 -0.025659 -0.002592
  CHANNELS 3 Yrotation Xrotation Zrotation
  JOINT LeftKnee
  {
   OFFSET 0.000000 -44.040977 0.002477
   CHANNELS 3 Yrotation Xrotation Zrotation
   JOINT LeftAnkle
   {
    OFFSET 0.000000 -42.951162 0.004189
    CHANNELS 3 Yrotation Xrotation Zrotation
    JOINT LeftToe
    {
     OFFSET 0.000000 -5.494238 12.197485
     CHANNELS 3 Yrotation Xrotation Zrotation
     End Site
     {
      OFFSET 0.000000 -1.538716 6.371628
     }
    }
   }
  }
 }
}
MOTION
Frames: 14
Frame Time: 0.008333
103.542230 91.024089 -59.185921 138.181511 1.608048 -0.654186 4.450002 3.924680 -0.608155 0.213928 0.220572 -0.024146 0.375288 0.387062 -0.041820 4.723650 4.897098 -0.341747 -1.623551 17.397615 2.819172 -3.942227 -3.352519 5.747200 10.721932 0.923655 1.901779 -6.394207 0.337361 -14.921171 -13.731187 -10.179770 15.289186 2.485899 -9.705910 -2.153384 6.443275 5.236695 2.386283 18.382460 -0.441457 20.310971 30.399245 -43.470054 -68.544527 8.581984 -29.719680 -3.079147 -25.500633 14.688780 5.356395 10.070661 -5.767858 -2.531027 1.062777 -8.765756 -1.352967 0.057844 0.185641 0.145912 -1.960365 -25.354272 1.783612 13.936100 11.754179 4.401842 1.794521 4.930145 -1.053306 -0.125669 4.890625 1.709906
104.130140 90.855219 -59.525798 138.103195 1.920067 -0.906730 4.374170 3.717545 -0.480783 0.208840 0.214353 -0.022120 0.366549 0.376332 -0.038311 4.678604 4.825923 -0.308253 -1.565059 17.426541 2.794577 -3.824575 -3.303954 5.680836 10.781510 0.981581 1.904960 -6.503902 0.306162 -14.991237 -13.597467 -10.322836 15.472965 2.553207 -9.724274 -1.982566 6.477537 5.311210 2.357202 18.365799 -0.399010 20.284276 30.315683 -43.505819 -68.427467 8.578462 -29.733025 -3.093997 -25.246728 14.897721 5.814148 10.050596 -5.620805 -2.762586 1.038427 -9.238587 -1.324856 0.031057 0.199905 0.165680 -0.848237 -25.254363 1.434928 13.894072 9.012718 4.206616 1.403353 5.338572 -1.174024 -0.150212 5.086209 1.785374
104.742244 90.680037 -59.886225 137.941679 2.105225 -1.212790 4.358381 3.616393 -0.310038 0.203634 0.208351 -0.019690 0.357600 0.365975 -0.034089 4.630284 4.757676 -0.264495 -1.501483 17.452619 2.774214 -3.699169 -3.260647 5.620771 10.853719 1.045850 1.917884 -6.587054 0.292534 -15.071593 -13.468999 -10.453585 15.646709 2.619617 -9.763316 -1.803679 6.516999 5.390959 2.332532 18.363189 -0.331138 20.268174 30.255718 -43.544096 -68.337297 8.576123 -29.743926 -3.105620 -24.943832 15.226039 6.265582 9.988164 -5.425899 -3.004808 1.067628 -9.687729 -1.275317 0.005719 0.157440 0.172714 0.378455 -24.940630 1.120474 13.904451 6.290788 3.936418 1.042879 5.574570 -1.278868 -0.147051 5.289389 1.887256
105.369878 90.499966 -60.262749 137.706577 2.218427 -1.555054 4.386920 3.568826 -0.119054 0.198609 0.202903 -0.016941 0.348948 0.356570 -0.029299 4.581414 4.696311 -0.211371 -1.432945 17.474070 2.757215 -3.566028 -3.225938 5.565523 10.935677 1.108815 1.945877 -6.631184 0.293263 -15.166634 -13.347076 -10.570520 15.806320 2.678984 -9.821692 -1.620484 6.561171 5.474333 2.310697 18.383120 -0.242015 20.260080 30.213982 -43.588291 -68.272020 8.575814 -29.753610 -3.113961 -24.625621 15.619698 6.711204 9.890581 -5.181932 -3.257598 1.162725 -10.173890 -1.186232 -0.026020 0.114951 0.157189 1.709731 -24.447827 0.855775 13.909963 3.601756 3.536814 0.736681 5.582536 -1.367080 -0.107212 5.545206 2.025428
106.022768 90.315519 -60.676504 137.347560 2.140943 -1.902069 4.505494 3.693452 0.067495 0.194106 0.198195 -0.013912 0.341190 0.348440 -0.024008 4.536634 4.643114 -0.149088 -1.359049 17.491177 2.742822 -3.424145 -3.199366 5.513532 11.025642 1.173427 1.992548 -6.631336 0.299889 -15.278229 -13.223275 -10.675285 15.948336 2.723342 -9.899729 -1.436780 6.609234 5.561924 2.291538 18.435038 -0.138251 20.255857 30.177494 -43.638095 -68.224053 8.577166 -29.764046 -3.123052 -24.286489 16.172066 7.058528 9.773664 -4.886905 -3.519396 1.295165 -10.662346 -1.050638 -0.036827 0.035402 0.127380 3.190493 -23.642762 0.645159 13.890949 0.962890 2.978892 0.506267 5.433685 -1.440915 -0.050319 5.787696 2.201648
106.686586 90.129074 -61.118572 136.878894 1.967998 -2.236126 4.695780 3.895311 0.227592 0.190495 0.194438 -0.010661 0.334968 0.341947 -0.018315 4.501118 4.599680 -0.078568 -1.282160 17.503651 2.730535 -3.277714 -3.181346 5.464668 11.118084 1.244626 2.055499 -6.589529 0.306081 -15.405881 -13.092167 -10.770090 16.075558 2.752438 -9.997065 -1.257280 6.650055 5.651673 2.273087 18.523781 -0.022722 20.255508 30.139070 -43.691493 -68.184715 8.576670 -29.775198 -3.135301 -23.960294 16.788093 7.320749 9.661210 -4.532419 -3.787931 1.484938 -11.214141 -0.853109 -0.050413 -0.024503 0.072373 4.749425 -22.630271 0.502236 13.883510 -1.581689 2.287776 0.355197 5.145651 -1.551123 0.003859 5.974698 2.421293
107.369183 89.942077 -61.604935 136.260148 1.608809 -2.539180 5.006684 4.259861 0.356774 0.188109 0.192061 -0.007439 0.330855 0.337836 -0.012663 4.477909 4.571768 -0.005628 -1.204665 17.511052 2.720808 -3.131294 -3.172540 5.420565 11.200982 1.325490 2.126113 -6.505870 0.304807 -15.545214 -12.955630 -10.853018 16.194180 2.771830 -10.109780 -1.089298 6.671002 5.738776 2.252233 18.646859 0.114933 20.261389 30.109611 -43.758729 -68.153853 8.569928 -29.783401 -3.147647 -23.629995 17.539826 7.432480 9.578735 -4.110589 -4.063309 1.696243 -11.816307 -0.595372 -0.047140 -0.082293 0.005850 6.338928 -21.365818 0.445553 13.986165 -3.937622 1.565232 0.224791 4.759912 -1.856523 0.070089 5.990094 2.713387
107.937942 89.773325 -61.844328 137.482514 2.847645 -3.324044 3.392189 3.063345 0.916675 0.187086 0.191305 -0.004467 0.329091 0.336529 -0.007440 4.467909 4.563112 0.064005 -1.126696 17.516129 2.714448 -2.985241 -3.167809 5.382617 11.266262 1.414503 2.198831 -6.382413 0.295298 -15.692106 -12.812289 -10.921898 16.305011 2.780888 -10.228480 -0.933998 6.668601 5.817414 2.228933 18.794917 0.287452 20.274162 30.097832 -43.846666 -68.125490 8.554289 -29.787657 -3.160081 -24.979064 17.164255 8.680814 9.540368 -3.613988 -4.348510 2.190410 -12.174838 -0.230372 -0.297181 -0.461553 -0.187939 5.705514 -22.067051 0.793971 14.263938 -6.191237 1.015812 0.324941 5.868988 -2.199335 -0.195944 4.799917 2.924362
108.575583 89.600883 -62.271433 137.456633 3.095098 -3.810271 3.018352 2.800098 1.204214 0.187187 0.191975 -0.001842 0.329262 0.337690 -0.002822 4.468221 4.572069 0.126938 -1.047899 17.525037 2.711352 -2.838564 -3.155764 5.350254 11.309644 1.503834 2.273782 -6.226659 0.287788 -15.844018 -12.655403 -10.977767 16.403460 2.777894 -10.348314 -0.781098 6.642049 5.891462 2.205735 18.959965 0.494324 20.290939 30.100033 -43.953552 -68.087572 8.532653 -29.798953 -3.173822 -25.357839 17.430452 9.154912 9.562666 -3.025767 -4.639160 2.552300 -12.654688 0.162561 -0.416406 -0.726675 -0.329231 6.384376 -21.553701 0.856985 14.684495 -8.089358 0.595454 0.249340 6.121097 -2.846694 -0.350125 3.912407 3.140841
109.237098 89.429630 -62.801171 137.046048 2.894485 -4.121317 3.029598 2.938661 1.324802 0.187534 0.193590 0.000295 0.329848 0.340495 0.000941 4.466334 4.596003 0.178702 -0.966947 17.543650 2.710010 -2.688041 -3.125664 5.320030 11.333686 1.591598 2.347386 -6.048279 0.290574 -15.991194 -12.479518 -11.019895 16.482528 2.768077 -10.470356 -0.625158 6.597541 5.972664 2.187539 19.134131 0.731012 20.303185 30.113424 -44.073494 -68.037390 8.508310 -29.826182 -3.182925 -25.505444 17.965755 9.206617 9.655572 -2.341758 -4.934984 2.792475 -13.260883 0.583544 -0.446917 -0.914700 -0.430609 7.452073 -20.623186 0.796973 15.077869 -9.471193 0.272695 0.252075 6.002995 -3.416091 -0.554705 3.026380 3.118717
109.914104 89.261185 -63.447766 136.255181 2.217677 -4.157695 3.432169 3.504977 1.193734 0.187193 0.195681 0.001799 0.329225 0.344141 0.003591 4.448649 4.632770 0.215109 -0.880716 17.572828 2.709574 -2.527618 -3.076113 5.289342 11.345984 1.679208 2.414495 -5.858858 0.304462 -16.124833 -12.279087 -11.046847 16.538279 2.758407 -10.592395 -0.471520 6.548945 6.057280 2.175634 19.305330 1.003021 20.310563 30.142854 -44.192001 -67.981101 8.486540 -29.863413 -3.186943 -25.429913 18.740854 8.730371 9.813059 -1.561102 -5.229339 2.869099 -14.025797 1.026429 -0.364737 -0.984207 -0.480189 8.812331 -19.314306 0.630817 15.391915 -10.147721 0.053468 0.370307 5.436096 -3.690571 -0.746812 2.207720 2.729346
110.588810 89.102696 -64.181816 135.239381 1.267455 -3.926923 4.057119 4.316545 0.839800 0.185492 0.197694 0.002371 0.326228 0.347674 0.004597 4.406330 4.677397 0.228682 -0.787571 17.610557 2.711737 -2.354968 -3.010841 5.260888 11.350877 1.763517 2.474969 -5.672754 0.330870 -16.243334 -12.044237 -11.059733 16.571324 2.751494 -10.713760 -0.325245 6.499354 6.136651 2.165103 19.461178 1.311859 20.324048 30.199594 -44.291916 -67.921655 8.475914 -29.895020 -3.188546 -25.255959 19.581326 7.840275 9.997344 -0.675614 -5.522332 2.798780 -14.948131 1.504652 -0.175418 -0.928373 -0.485915 10.139848 -17.872358 0.442663 15.727434 -10.136751 -0.032534 0.446999 4.611217 -3.594945 -0.748005 1.480262 1.992275
111.238602 88.965944 -64.882570 134.635730 0.648052 -3.785784 4.260435 4.799457 0.611257 0.181616 0.199025 0.001527 0.319443 0.350055 0.003107 4.327459 4.725234 0.207372 -0.687242 17.655417 2.719594 -2.170713 -2.932349 5.240373 11.355135 1.841794 2.538629 -5.509873 0.372015 -16.355047 -11.765418 -11.061123 16.582498 2.750199 -10.841684 -0.187524 6.440043 6.219462 2.143037 19.595966 1.639591 20.357096 30.295751 -44.359031 -67.851293 8.476342 -29.910743 -3.182862 -25.433004 20.119484 7.171382 10.140961 0.336612 -5.824901 2.833513 -15.733185 2.066232 -0.084770 -1.042666 -0.546641 10.728040 -16.820341 0.490698 16.530710 -10.013828 -0.093705 -0.116492 4.542815 -3.246238 -0.312287 0.452558 1.151902
111.838657 88.855987 -65.485947 134.781263 0.706785 -3.905091 3.713322 4.620077 0.651581 0.175495 0.200032 -0.001090 0.308738 0.351908 -0.001509 4.206612 4.782895 0.142045 -0.580498 17.703332 2.737607 -1.977944 -2.847980 5.236453 11.359997 1.910647 2.627551 -5.389157 0.417628 -16.478035 -11.439994 -11.053512 16.569145 2.758420 -10.984146 -0.059042 6.364464 6.299553 2.091362 19.700342 1.971853 20.419289 30.439833 -44.389132 -67.752943 8.477562 -29.908080 -3.162810 -26.173227 20.112849 7.056604 10.192329 1.492849 -6.146106 3.073247 -16.258519 2.729147 -0.163448 -1.442708 -0.701286 10.221569 -16.330278 0.851177 17.693328 -10.397086 -0.357484 -0.908801 5.958373 -2.651143 0.333907 -1.057682 0.420983
